<svg width="721" height="322" viewBox="0 0 721 322" fill="none" xmlns="http://www.w3.org/2000/svg">
<path d="M38.3158 206.559L0 179.401L24.1248 142.369L61.0215 120.973L92.2417 102.045L127.01 92.9925L146.877 84.7631L159.649 69.9501L185.193 65.0125L213.575 57.606L248.343 32.9177L273.177 4.11471L298.721 0H332.78L371.805 4.11471L403.025 16.4589L434.955 25.5112L465.466 32.9177L496.686 25.5112L520.811 32.9177L543.517 72.419L565.513 92.9925L586.799 108.217L608.795 137.431L637.177 152.244L665.56 180.224L720.195 256.758L630.082 261.696L565.513 287.207L526.487 303.666L338.456 321.771L248.343 291.322L38.3158 206.559Z" fill="#40321C"/>
</svg>
