<svg width="993" height="447" viewBox="0 0 993 447" fill="none" xmlns="http://www.w3.org/2000/svg">
<path d="M118.274 330.823L0.0637817 338.229L100.088 266.633L147.372 245.237L187.382 226.309L231.938 217.257L257.398 209.027L273.766 194.214L306.501 189.277L331.962 175.287L371.971 151.421L418.346 101.222L468.358 67.4813L496.547 40.3242H512.005L542.922 21.3965L605.664 0H694.776L748.426 7.40648L776.614 21.3965L803.893 40.3242L838.447 84.7631L876.638 129.202L908.464 157.182L922.104 189.277L936.653 209.027V238.653L949.383 260.05V287.207V309.426L992.121 381.022L876.638 385.96L793.891 411.471L743.879 427.93L502.912 446.035L387.43 415.586L118.274 330.823Z" fill="#40321C"/>
</svg>
